<svg viewBox="176.3433149171271 133.527002 402.76243093922653 246.512" version="1.1" xmlns:xlink="http://www.w3.org/1999/xlink" xmlns="http://www.w3.org/2000/svg" id="Layer_1" style="max-height: 500px" width="402.76243093922653" height="246.512">
  
  <defs>
    <style>
      .st0 {
        fill: url(#linear-gradient2);
      }

      .st1 {
        fill: url(#linear-gradient1);
      }

      .st2 {
        fill: url(#linear-gradient3);
      }

      .st3 {
        fill: url(#linear-gradient5);
      }

      .st4 {
        fill: url(#linear-gradient4);
      }

      .st5 {
        fill: url(#linear-gradient);
      }
    </style>
    <linearGradient gradientUnits="userSpaceOnUse" y2="225.51" x2="561.36" y1="230.62" x1="201.81" id="linear-gradient">
      <stop stop-color="#c30045" offset="0"/>
      <stop stop-color="#f05" offset="1"/>
    </linearGradient>
    <linearGradient xlink:href="#linear-gradient" y2="240.31" x2="509.3" y1="244.46" x1="216.8" id="linear-gradient1"/>
    <linearGradient xlink:href="#linear-gradient" y2="239.99" x2="553.35" y1="245.09" x1="193.81" id="linear-gradient2"/>
    <linearGradient xlink:href="#linear-gradient" gradientTransform="translate(-37.64 75.84) rotate(-10.38)" y2="242.88" x2="549.99" y1="247.99" x1="190.44" id="linear-gradient3"/>
    <linearGradient xlink:href="#linear-gradient" y2="242.28" x2="546.39" y1="247.39" x1="186.84" id="linear-gradient4"/>
    <linearGradient xlink:href="#linear-gradient" y2="235.79" x2="540.85" y1="239.74" x1="262.59" id="linear-gradient5"/>
  </defs>
  <g>
    <path d="M293.43,149.59h18.99c9.67,0,15.01,4.15,15.01,10.8,0,4.33-2.2,7.48-5.34,9.14,4.45,1.36,7.48,4.87,7.48,10.33,0,7.12-5.4,11.27-15.96,11.27h-20.18v-41.54ZM311.7,167.39c5.76,0,9.02-2.08,9.02-6.17s-3.26-6.23-9.02-6.23h-11.63v12.4h11.63ZM313.25,185.73c6.23,0,9.61-1.96,9.61-6.47s-3.38-6.47-9.61-6.47h-13.17v12.94h13.17Z"/>
    <path d="M334.84,175.34c0-9.38,6.82-16.14,16.08-16.14s15.73,6.59,15.73,16.38c0,.53-.06,1.36-.12,1.96h-25.28c.83,5.04,5.04,8.37,10.98,8.37,3.62,0,6.59-1.19,8.84-3.68l3.5,4.15c-2.85,3.32-7.24,5.1-12.52,5.1-10.38,0-17.21-6.71-17.21-16.14ZM360.54,172.97c-.59-4.93-4.45-8.31-9.61-8.31s-8.96,3.32-9.67,8.31h19.29Z"/>
    <path d="M374.24,147.09h6.41v44.03h-6.41v-44.03Z"/>
    <path d="M389.93,159.56v-2.31c0-6.35,3.86-10.5,10.86-10.5,2.49,0,4.87.53,6.47,1.72l-1.9,4.93c-1.13-.83-2.61-1.42-4.21-1.42-3.26,0-4.93,1.84-4.93,5.34v2.25h8.96v5.28h-8.84v26.29h-6.41v-31.57ZM416.67,145.79c2.37,0,4.21,1.72,4.21,3.92,0,2.37-1.78,4.15-4.21,4.15s-4.21-1.72-4.21-4.04c0-2.2,1.84-4.04,4.21-4.04ZM413.47,159.56h6.41v31.57h-6.41v-31.57Z"/>
    <path d="M428.96,177.65v-18.1h6.41v17.39c0,5.88,2.91,8.84,8.01,8.84,5.64,0,9.32-3.44,9.32-10.03v-16.2h6.41v31.57h-6.11v-4.21c-2.37,2.97-6.17,4.57-10.38,4.57-8.19,0-13.65-4.39-13.65-13.83Z"/>
    <path d="M466.63,187.92l2.67-5.1c2.73,1.84,7,3.2,11.04,3.2,4.92,0,7.06-1.48,7.06-3.92,0-6.53-19.76-.59-19.76-13.17,0-5.93,5.34-9.73,13.47-9.73,4.15,0,8.9,1.07,11.69,2.85l-2.73,5.04c-2.91-1.78-5.99-2.37-9.02-2.37-4.69,0-7.06,1.6-7.06,3.92,0,6.88,19.76,1.01,19.76,13.35,0,5.88-5.46,9.49-13.89,9.49-5.28,0-10.5-1.54-13.23-3.56Z"/>
  </g>
  <g>
    <path d="M200.86,243.3c0-21.45,14.91-35.57,35.44-35.57,9.15,0,17.39,3.27,23.15,9.94v-36.62h14.12v97.04h-13.47v-9.81c-5.62,7.19-14.12,10.59-23.8,10.59-20.53,0-35.44-14.12-35.44-35.57ZM237.48,266.58c12.56,0,22.23-9.16,22.23-23.28s-9.68-23.15-22.23-23.15-22.36,9.02-22.36,23.15,9.68,23.28,22.36,23.28Z" class="st5"/>
    <path d="M291.49,208.51h14.12v69.58h-14.12v-69.58Z" class="st1"/>
    <path d="M321.48,208.51h13.47v10.72c4.58-7.59,13.21-11.51,24.98-11.51v13.73c-1.18-.13-2.22-.13-3.27-.13-12.95,0-21.06,7.72-21.06,22.63v34.13h-14.12v-69.58Z" class="st0"/>
    <path d="M363.12,251.43c-3.72-20.33,8.38-37.7,28.45-41.38,19.94-3.65,36.71,8.03,40.59,29.26.21,1.16.41,2.98.52,4.29l-54.8,10.04c3.8,10.6,12.2,15.16,25.28,15.16,6.53,0,14.71-3.35,17.55-8.45l7.61,9.16c-8.83,6.82-14.11,9.36-21.49,10.08-22.78,2.21-39.97-7.7-43.72-28.16ZM417.88,236.08c-3.24-10.44-12.95-16.24-24.14-14.19s-18.11,10.76-17.67,21.85l41.81-7.66Z" class="st2"/>
    <path d="M437.55,243.3c0-20.79,15.56-35.57,37.14-35.57,12.95,0,23.54,5.36,28.9,15.56l-10.85,6.67c-4.32-6.67-10.86-9.81-18.18-9.81-12.95,0-22.76,8.89-22.76,23.15s9.81,23.28,22.76,23.28c7.32,0,13.86-3.01,18.18-9.81l10.85,6.67c-5.36,9.94-15.96,15.43-28.9,15.43-21.58,0-37.14-14.78-37.14-35.57Z" class="st4"/>
    <path d="M511.81,208.51v-15.3h14.12v15.3h19.49v11.64h-19.49v35.83c0,7.06,3.79,11.12,10.46,11.12,3.53,0,6.93-1.18,9.42-3.14l4.32,10.2c-3.92,3.14-9.68,4.71-15.43,4.71-14.52,0-22.89-7.85-22.89-22.5v-47.87Z" class="st3"/>
  </g>
  <g>
    <path d="M203.37,296.42h3.17l10.63,24.11,10.71-24.11h2.97l-12.29,27.76h-2.9l-12.29-27.76Z"/>
    <path d="M254.49,321.64v2.54h-19.63v-27.76h19.04v2.54h-16.1v9.88h14.36v2.5h-14.36v10.31h16.7Z"/>
    <path d="M261.4,296.42h10.39c7.06,0,11.34,3.57,11.34,9.52,0,4.36-2.3,7.42-6.35,8.72l6.78,9.52h-3.21l-6.34-8.92c-.71.08-1.43.12-2.22.12h-7.46v8.8h-2.93v-27.76ZM271.71,312.87c5.55,0,8.49-2.58,8.49-6.94s-2.94-6.98-8.49-6.98h-7.38v13.92h7.38Z"/>
    <path d="M287.34,322.15l18.4-23.2h-18.12v-2.54h22.01v2.02l-18.36,23.2h18.84v2.54h-22.76v-2.02Z"/>
    <path d="M335.53,321.64v2.54h-19.63v-27.76h19.04v2.54h-16.1v9.88h14.36v2.5h-14.36v10.31h16.7Z"/>
    <path d="M342.43,296.42h2.93v16.78l16.3-16.78h3.37l-12.02,12.57,12.85,15.19h-3.49l-11.34-13.05-5.67,5.75v7.3h-2.93v-27.76Z"/>
    <path d="M390.26,321.64v2.54h-19.63v-27.76h19.04v2.54h-16.1v9.88h14.36v2.5h-14.36v10.31h16.7Z"/>
    <path d="M397.17,296.42h10.39c7.06,0,11.34,3.57,11.34,9.52,0,4.36-2.3,7.42-6.34,8.72l6.78,9.52h-3.21l-6.35-8.92c-.71.08-1.43.12-2.22.12h-7.46v8.8h-2.94v-27.76ZM407.48,312.87c5.55,0,8.49-2.58,8.49-6.94s-2.93-6.98-8.49-6.98h-7.38v13.92h7.38Z"/>
    <path d="M425.84,296.42h2.94v27.76h-2.94v-27.76Z"/>
    <path d="M437.82,296.42h2.42l17.88,22.53v-22.53h2.9v27.76h-2.42l-17.85-22.53v22.53h-2.94v-27.76Z"/>
    <path d="M467.61,310.3c0-8.13,6.19-14.12,14.67-14.12,4.2,0,7.85,1.35,10.31,4l-1.82,1.86c-2.34-2.3-5.12-3.25-8.37-3.25-6.86,0-11.9,4.88-11.9,11.5s5.04,11.5,11.86,11.5c2.66,0,5.12-.59,7.26-2.14v-9.36h2.82v10.59c-2.62,2.34-6.34,3.53-10.19,3.53-8.45,0-14.63-5.99-14.63-14.12Z"/>
    <path d="M520.36,321.64v2.54h-19.63v-27.76h19.04v2.54h-16.1v9.88h14.36v2.5h-14.36v10.31h16.7Z"/>
    <path d="M527.26,296.42h2.42l17.88,22.53v-22.53h2.9v27.76h-2.42l-17.85-22.53v22.53h-2.94v-27.76Z"/>
  </g>
  <g>
    <path d="M217.99,337.98h2.85l12.48,27.3h-3.04l-3.28-7.29h-15.21l-3.28,7.29h-3l12.48-27.3ZM225.94,355.65l-6.55-14.66-6.55,14.66h13.1Z"/>
    <path d="M243.02,361.96l1.13-2.22c1.95,1.91,5.42,3.32,9.01,3.32,5.11,0,7.33-2.15,7.33-4.84,0-7.49-16.81-2.89-16.81-12.99,0-4.02,3.12-7.49,10.06-7.49,3.08,0,6.28.9,8.46,2.42l-.98,2.3c-2.34-1.52-5.07-2.26-7.49-2.26-4.99,0-7.22,2.22-7.22,4.95,0,7.49,16.81,2.96,16.81,12.91,0,4.02-3.2,7.45-10.18,7.45-4.1,0-8.11-1.44-10.14-3.55Z"/>
    <path d="M274.81,361.96l1.13-2.22c1.95,1.91,5.42,3.32,9.01,3.32,5.11,0,7.33-2.15,7.33-4.84,0-7.49-16.81-2.89-16.81-12.99,0-4.02,3.12-7.49,10.06-7.49,3.08,0,6.28.9,8.46,2.42l-.98,2.3c-2.34-1.52-5.07-2.26-7.49-2.26-4.99,0-7.22,2.22-7.22,4.95,0,7.49,16.81,2.96,16.81,12.91,0,4.02-3.2,7.45-10.18,7.45-4.1,0-8.11-1.44-10.14-3.55Z"/>
    <path d="M308.97,353.62v-15.64h2.89v15.52c0,6.47,3.04,9.44,8.35,9.44s8.39-2.96,8.39-9.44v-15.52h2.81v15.64c0,7.84-4.21,11.9-11.19,11.9s-11.23-4.06-11.23-11.9Z"/>
    <path d="M347.89,337.98h10.22c6.94,0,11.15,3.51,11.15,9.36,0,4.29-2.26,7.29-6.24,8.58l6.67,9.36h-3.16l-6.24-8.78c-.7.08-1.4.12-2.18.12h-7.33v8.66h-2.89v-27.3ZM358.03,354.16c5.46,0,8.35-2.54,8.35-6.83s-2.89-6.86-8.35-6.86h-7.25v13.69h7.25Z"/>
    <path d="M392,337.98h2.85l12.48,27.3h-3.04l-3.28-7.29h-15.21l-3.28,7.29h-3l12.48-27.3ZM399.96,355.65l-6.55-14.66-6.55,14.66h13.1Z"/>
    <path d="M419.65,337.98h2.38l17.59,22.15v-22.15h2.85v27.3h-2.38l-17.55-22.15v22.15h-2.89v-27.3Z"/>
    <path d="M456.74,351.63c0-8,6.08-13.88,14.31-13.88,3.98,0,7.57,1.33,9.98,3.98l-1.83,1.83c-2.22-2.26-4.95-3.24-8.07-3.24-6.59,0-11.54,4.84-11.54,11.31s4.95,11.31,11.54,11.31c3.12,0,5.85-.98,8.07-3.28l1.83,1.83c-2.42,2.65-6.01,4.02-10.02,4.02-8.19,0-14.27-5.89-14.27-13.88Z"/>
    <path d="M514.31,362.78v2.5h-19.31v-27.3h18.72v2.5h-15.83v9.71h14.12v2.46h-14.12v10.14h16.42Z"/>
    <path d="M526.28,361.96l1.13-2.22c1.95,1.91,5.42,3.32,9.01,3.32,5.11,0,7.33-2.15,7.33-4.84,0-7.49-16.81-2.89-16.81-12.99,0-4.02,3.12-7.49,10.06-7.49,3.08,0,6.28.9,8.46,2.42l-.97,2.3c-2.34-1.52-5.07-2.26-7.49-2.26-4.99,0-7.22,2.22-7.22,4.95,0,7.49,16.81,2.96,16.81,12.91,0,4.02-3.2,7.45-10.18,7.45-4.1,0-8.11-1.44-10.14-3.55Z"/>
  </g>
</svg>