<svg xmlns="http://www.w3.org/2000/svg" id="Layer_2" viewBox="0 0 420.5 69.2"><defs><style>.cls-1,.cls-2{fill:none;}.cls-3{fill:#e02d17;}.cls-4{fill:#264a96;}.cls-5{fill:#274996;}.cls-2{stroke:#e02d17;stroke-miterlimit:10;stroke-width:2px;}.cls-6{isolation:isolate;}</style></defs><g id="Calque_1"><g><path class="cls-5" d="m98.39,24.12h13.75c.05,0,.09.04.09.09v2.92s0,.04-.02.06c-2.18,3.25-6.37,4.9-12.47,4.9-9.59,0-14.87-4.3-14.87-12.1s5.18-12.1,14.59-12.1c5.32,0,9.14,1.51,12.01,4.76l.36.4,5.68-4.05-.47-.5c-2.38-2.55-7.84-6.83-17.63-6.83-13.3,0-21.57,7.02-21.57,18.32s8.1,18.32,21.66,18.32c8.71,0,15.96-3.28,19.37-8.78l.09-.15v-9.94c0-.79-.64-1.43-1.43-1.43h-19.16c-.05,0-.09.04-.09.09v5.93s.06.09.11.09Z"></path><polygon class="cls-5" points="133.59 22.83 156.42 22.83 156.42 16.61 133.59 16.61 133.59 8.88 160.72 8.88 160.72 2.67 126.71 2.67 126.71 37.3 161.19 37.3 161.19 31.08 133.59 31.08 133.59 22.83"></polygon><polygon class="cls-5" points="199.82 27.16 175.65 2.67 168.68 2.67 168.68 37.3 175.42 37.3 175.42 11.79 200.52 37.12 200.7 37.3 206.61 37.3 206.61 2.67 199.82 2.67 199.82 27.16"></polygon><polygon class="cls-5" points="223.56 22.83 246.39 22.83 246.39 16.61 223.56 16.61 223.56 8.88 250.68 8.88 250.68 2.67 216.68 2.67 216.68 37.3 251.16 37.3 251.16 31.08 223.56 31.08 223.56 22.83"></polygon><path class="cls-5" d="m296.1,13.92c0-6.83-5.54-11.25-14.12-11.25h-23.33v34.63h6.93v-12.13h13.21l10.36,12.13h8.66l-11.03-12.64c5.86-1.4,9.32-5.36,9.32-10.74Zm-30.57-5.04h16.07c4.99,0,7.42,1.66,7.42,5.08s-2.43,5.08-7.42,5.08h-16.07v-10.16Z"></path><path class="cls-5" d="m317.58,2.67l-18.75,34.63h7.58l4.25-8.07h20.72l4.3,8.07h7.62l-18.7-34.63s-7.02,0-7.02,0Zm10.64,20.48h-14.34l7.17-13.59,7.17,13.59Z"></path><polygon class="cls-5" points="355.31 2.67 348.38 2.67 348.38 37.3 379.95 37.3 379.95 31.03 355.31 31.03 355.31 2.67"></polygon><polygon class="cls-5" points="392.89 31.08 392.89 22.83 415.72 22.83 415.72 16.61 392.89 16.61 392.89 8.88 420.02 8.88 420.02 2.67 386.01 2.67 386.01 37.3 420.5 37.3 420.5 31.08 392.89 31.08"></polygon></g><g><path class="cls-4" d="m100.71,61.72v2.95h-19.6v-19.68h19.32v2.95h-15.97v5.26h13.44v2.95h-13.44v5.57s16.25,0,16.25,0Z"></path><path class="cls-4" d="m126.75,44.99v19.69h-2.98l-15.38-15.52v15.52h-3.26v-19.69h3.6l14.74,14.93v-14.93h3.28Z"></path><path class="cls-4" d="m152.28,61.72v2.95h-19.6v-19.68h19.32v2.95h-15.97v5.26h13.44v2.95h-13.44v5.57s16.25,0,16.25,0Z"></path><path class="cls-4" d="m174.46,64.68l-6.1-7.14h-8.3v7.14h-3.38v-19.69h13.39c4.58,0,7.96,2.19,7.96,6.27,0,3.4-2.36,5.48-5.79,6.1l6.38,7.31h-4.16Zm-4.61-10.03c2.81,0,4.72-.9,4.72-3.35s-1.91-3.35-4.72-3.35h-9.81v6.69h9.81Z"></path><path class="cls-4" d="m204.74,60.26c-1.8,2.9-5.71,5.01-11.11,5.01-7.76,0-12.4-3.94-12.4-10.43s4.64-10.43,12.35-10.43c4.84,0,8.15,1.8,10.12,3.91l-2.76,1.97c-1.74-1.97-4.05-2.92-7.34-2.92-5.54,0-8.94,2.53-8.94,7.48s3.46,7.48,9.11,7.48c3.46,0,6.27-.9,7.7-3.15v-2.25h-8.21v-2.9h11.47v6.23h0Z"></path><path class="cls-4" d="m209.29,64.68v-19.69h3.38v19.69h-3.38Z"></path><path class="cls-4" d="m238.2,61.72v2.95h-19.6v-19.68h19.32v2.95h-15.97v5.26h13.44v2.95h-13.44v5.57s16.25,0,16.25,0Z"></path></g><path class="cls-3" d="m66.26,19.29c-.33-1.17-.88-2.26-1.61-3.21l-30.91,16.05c-.27.14-.43.41-.43.71v2.18c0,.59.63.98,1.16.7l14.62-7.56v4.36l-14.69,7.63c-.26.14-.43.41-.43.71v2.18c.01.59.64.98,1.17.7l13.95-7.21v3.34c0,1.04-.58,1.99-1.5,2.47l-13.02,6.76c-.81.42-1.76.42-2.57,0l-13.02-6.76c-.92-.48-1.5-1.43-1.5-2.47v-13.04c0-1.04.58-1.99,1.5-2.47l13.02-6.76c.81-.42,1.76-.42,2.57,0l5.38,2.79c.53.27,1.15.27,1.68,0l16.63-8.64L37.71,1.07c-2.76-1.43-6.04-1.43-8.8,0L5.14,13.41C1.98,15.05,0,18.32,0,21.88v23.01c0,3.56,1.98,6.83,5.14,8.47l23.77,12.36c2.76,1.43,6.04,1.43,8.8,0l23.77-12.35c3.16-1.64,5.14-4.91,5.14-8.47v-23.01c0-.9-.13-1.77-.36-2.6Z"></path><line class="cls-2" x1="257.16" y1="44.99" x2="257.16" y2="66.79"></line><rect class="cls-1" x="277.32" y="47.18" width="125.36" height="22.02"></rect><g class="cls-6"><path class="cls-3" d="m293.97,60.01c-1.41,2.27-4.47,3.92-8.69,3.92-6.07,0-9.7-3.08-9.7-8.16s3.63-8.16,9.66-8.16c3.79,0,6.38,1.41,7.92,3.06l-2.16,1.54c-1.36-1.54-3.17-2.29-5.74-2.29-4.33,0-7,1.98-7,5.85s2.71,5.85,7.13,5.85c2.71,0,4.91-.7,6.03-2.46v-1.76h-6.43v-2.27h8.98v4.88Z"></path><path class="cls-3" d="m311.44,63.46l-4.77-5.59h-6.49v5.59h-2.64v-15.4h10.47c3.59,0,6.23,1.72,6.23,4.91,0,2.66-1.85,4.29-4.53,4.77l4.99,5.72h-3.26Zm-3.61-7.86c2.2,0,3.7-.7,3.7-2.62s-1.5-2.62-3.7-2.62h-7.68v5.24h7.68Z"></path><path class="cls-3" d="m316.74,55.76c0-5.08,3.65-8.16,9.57-8.16s9.57,3.08,9.57,8.16-3.65,8.16-9.57,8.16-9.57-3.08-9.57-8.16Zm16.44,0c0-3.74-2.68-5.83-6.87-5.83s-6.89,2.09-6.89,5.83,2.68,5.83,6.89,5.83,6.87-2.09,6.87-5.83Z"></path><path class="cls-3" d="m355.92,48.06v8.14c0,4.55-2.93,7.72-8.38,7.72s-8.36-3.17-8.36-7.72v-8.14h2.64v7.96c0,3.46,2.05,5.54,5.72,5.54s5.74-2.09,5.74-5.54v-7.96h2.64Z"></path><path class="cls-3" d="m376.91,53.1c0,3.23-2.49,5.04-6.23,5.04h-7.77v5.33h-2.64v-15.4h10.41c3.74,0,6.23,1.83,6.23,5.04Zm-2.71.02c0-1.98-1.47-2.75-3.74-2.75h-7.55v5.5h7.55c2.27,0,3.74-.79,3.74-2.75Z"></path><path class="cls-3" d="m395.39,61.15v2.31h-15.34v-15.4h15.12v2.31h-12.5v4.11h10.52v2.31h-10.52v4.36h12.72Z"></path></g></g></svg>